<svg width="130" height="39" viewBox="0 0 130 39" fill="none" xmlns="http://www.w3.org/2000/svg">
<g clip-path="url(#clip0_4176_1055)">
<path d="M125.665 0H4.04984C1.81318 0 0 1.80246 0 4.0259V34.6227C0 36.8462 1.81318 38.6486 4.04984 38.6486H125.665C127.902 38.6486 129.715 36.8462 129.715 34.6227V4.0259C129.715 1.80246 127.902 0 125.665 0Z" fill="black"/>
<path d="M27.3323 20.1436C27.3451 19.1561 27.609 18.1877 28.0994 17.3288C28.5899 16.4698 29.2909 15.7481 30.1373 15.2309C29.5996 14.4675 28.8902 13.8393 28.0656 13.3961C27.241 12.9529 26.3237 12.707 25.3868 12.6778C23.388 12.4693 21.4503 13.8668 20.4318 13.8668C19.3936 13.8668 17.8254 12.6985 16.1368 12.7331C15.0445 12.7682 13.98 13.0839 13.047 13.6496C12.114 14.2152 11.3443 15.0114 10.8129 15.9608C8.51089 19.9226 10.2279 25.7453 12.433 28.9479C13.5363 30.516 14.8256 32.2677 16.5128 32.2056C18.1637 32.1375 18.7804 31.1591 20.7732 31.1591C22.7475 31.1591 23.326 32.2056 25.0474 32.1661C26.819 32.1376 27.9351 30.591 28.9997 29.0079C29.7924 27.8905 30.4023 26.6556 30.807 25.3488C29.7778 24.9161 28.8994 24.1917 28.2815 23.2661C27.6637 22.3405 27.3336 21.2545 27.3323 20.1436Z" fill="white"/>
<path d="M24.081 10.5716C25.047 9.41888 25.5229 7.93727 25.4076 6.44141C23.9319 6.59548 22.5687 7.29663 21.5898 8.40508C21.1111 8.9466 20.7445 9.57662 20.5109 10.259C20.2773 10.9415 20.1814 11.663 20.2284 12.3823C20.9666 12.3899 21.6968 12.2309 22.3641 11.9172C23.0315 11.6035 23.6185 11.1435 24.081 10.5716Z" fill="white"/>
<path d="M48.8638 25.6752H43.8525L42.6493 29.127H40.5264L45.2732 16.3563H47.4787L52.2251 29.127H50.0666L48.8638 25.6752ZM44.3717 24.0824H48.3438L46.3857 18.4804H46.331L44.3717 24.0824Z" fill="white"/>
<path d="M62.4764 24.4721C62.4764 27.3655 60.882 29.2244 58.476 29.2244C57.8665 29.2554 57.2606 29.119 56.7272 28.8309C56.1939 28.5428 55.7549 28.1147 55.46 27.5955H55.4147V32.2072H53.4473V19.8162H55.3515V21.3648H55.388C55.6957 20.8481 56.1424 20.4221 56.6798 20.1323C57.2173 19.8424 57.8256 19.6995 58.4399 19.7188C60.8727 19.7188 62.4764 21.5868 62.4764 24.4721ZM60.4539 24.4721C60.4539 22.587 59.4512 21.3477 57.9207 21.3477C56.4174 21.3477 55.4066 22.6131 55.4066 24.4721C55.4066 26.3481 56.4174 27.6045 57.9207 27.6045C59.4512 27.6045 60.4539 26.3743 60.4539 24.4721Z" fill="white"/>
<path d="M73.0266 24.4721C73.0266 27.3655 71.4322 29.2244 69.0262 29.2244C68.4167 29.2554 67.8108 29.119 67.2774 28.8309C66.7441 28.5428 66.3047 28.1147 66.0102 27.5954H65.9649V32.2072H63.9971V19.8162H65.9017V21.3648H65.9378C66.2459 20.848 66.6922 20.4221 67.2301 20.1323C67.7675 19.8424 68.3758 19.6995 68.9901 19.7188C71.4229 19.7188 73.0266 21.5867 73.0266 24.4721ZM71.0041 24.4721C71.0041 22.587 70.0014 21.3477 68.4709 21.3477C66.9676 21.3477 65.9564 22.6131 65.9564 24.4721C65.9564 26.3481 66.9676 27.6045 68.4709 27.6045C70.0014 27.6045 71.0041 26.3742 71.0041 24.4721Z" fill="white"/>
<path d="M79.9993 25.5688C80.145 26.8352 81.4114 27.6667 83.1423 27.6667C84.8008 27.6667 85.9938 26.8352 85.9938 25.6933C85.9938 24.7021 85.2742 24.1085 83.5704 23.7018L81.8662 23.3031C79.4521 22.7367 78.3315 21.64 78.3315 19.8603C78.3315 17.6569 80.3083 16.1434 83.1152 16.1434C85.8934 16.1434 87.798 17.6569 87.862 19.8603H85.876C85.7569 18.5859 84.6724 17.8166 83.0873 17.8166C81.5026 17.8166 80.418 18.5949 80.418 19.7278C80.418 20.6306 81.1105 21.1619 82.805 21.5686L84.2536 21.9141C86.9512 22.5337 88.0718 23.5863 88.0718 25.4543C88.0718 27.8435 86.1125 29.3399 82.9965 29.3399C80.0807 29.3399 78.112 27.8786 77.9849 25.5687L79.9993 25.5688Z" fill="white"/>
<path d="M92.318 17.6127V19.8161H94.1409V21.3296H92.318V26.4626C92.318 27.26 92.6833 27.6316 93.4844 27.6316C93.7011 27.6279 93.9169 27.6131 94.1316 27.5873V29.0918C93.7715 29.1571 93.4054 29.1868 93.0389 29.1802C91.0982 29.1802 90.3413 28.4721 90.3413 26.6664V21.3296H88.9478V19.8161H90.3413V17.6127H92.318Z" fill="white"/>
<path d="M95.1968 24.4721C95.1968 21.5425 96.973 19.7017 99.7427 19.7017C102.522 19.7017 104.29 21.5425 104.29 24.4721C104.29 27.4096 102.531 29.2425 99.7427 29.2425C96.9552 29.2425 95.1968 27.4096 95.1968 24.4721ZM102.285 24.4721C102.285 22.4625 101.337 21.2764 99.7427 21.2764C98.1487 21.2764 97.2014 22.4715 97.2014 24.4721C97.2014 26.4897 98.1487 27.6667 99.7427 27.6667C101.337 27.6667 102.285 26.4897 102.285 24.4721Z" fill="white"/>
<path d="M105.913 19.8161H107.789V21.4008H107.835C107.961 20.9059 108.26 20.4685 108.68 20.1621C109.1 19.8558 109.615 19.6992 110.14 19.7187C110.367 19.7179 110.593 19.7418 110.814 19.79V21.5776C110.528 21.4927 110.229 21.4537 109.93 21.4621C109.644 21.4509 109.359 21.4998 109.095 21.6056C108.83 21.7114 108.592 21.8716 108.397 22.0751C108.203 22.2786 108.056 22.5206 107.966 22.7846C107.877 23.0486 107.848 23.3282 107.88 23.6043V29.1269H105.912L105.913 19.8161Z" fill="white"/>
<path d="M119.886 26.3923C119.621 28.0825 117.926 29.2425 115.758 29.2425C112.97 29.2425 111.239 27.4277 111.239 24.5162C111.239 21.5958 112.979 19.7017 115.676 19.7017C118.328 19.7017 119.995 21.4712 119.995 24.2943V24.9491H113.225V25.0646C113.194 25.4072 113.238 25.7525 113.355 26.0773C113.472 26.4021 113.658 26.699 113.902 26.9485C114.146 27.1979 114.441 27.3941 114.77 27.524C115.098 27.6539 115.45 27.7145 115.804 27.7019C116.269 27.7442 116.735 27.6396 117.134 27.4036C117.533 27.1677 117.843 26.813 118.017 26.3923H119.886ZM113.235 23.6134H118.027C118.045 23.3053 117.996 22.9969 117.885 22.7078C117.775 22.4185 117.604 22.1547 117.383 21.9329C117.162 21.7109 116.896 21.5358 116.603 21.4183C116.309 21.3009 115.993 21.2437 115.676 21.2503C115.355 21.2484 115.038 21.3082 114.741 21.4262C114.445 21.5442 114.175 21.7181 113.948 21.9378C113.721 22.1575 113.542 22.4187 113.419 22.7063C113.297 22.9938 113.234 23.3021 113.235 23.6134Z" fill="white"/>
<path d="M44.1249 6.7439C44.5371 6.71515 44.951 6.77566 45.3366 6.92112C45.7221 7.06658 46.0696 7.29331 46.3539 7.58499C46.6382 7.87667 46.8524 8.22604 46.9812 8.60785C47.1096 8.98967 47.1493 9.39443 47.0974 9.79296C47.0974 11.7533 46.0064 12.8802 44.1249 12.8802H41.8428V6.7439H44.1249ZM42.824 12.0124H44.0151C44.3099 12.0295 44.6048 11.9826 44.8785 11.875C45.1523 11.7674 45.3977 11.6019 45.5974 11.3905C45.797 11.1791 45.9457 10.9271 46.0323 10.6529C46.119 10.3787 46.1417 10.0892 46.0984 9.80544C46.1384 9.52282 46.1133 9.23509 46.0255 8.9629C45.9376 8.69075 45.7885 8.44082 45.5893 8.23111C45.3904 8.02136 45.1458 7.85702 44.8737 7.74985C44.6015 7.64264 44.3083 7.59526 44.0151 7.61104H42.824V12.0124Z" fill="white"/>
<path d="M48.2059 10.5626C48.1759 10.2583 48.212 9.95128 48.3112 9.66117C48.4104 9.3711 48.5712 9.10439 48.783 8.87817C48.9944 8.65192 49.2528 8.47115 49.5403 8.34748C49.8282 8.2238 50.1393 8.15991 50.4544 8.15991C50.769 8.15991 51.0801 8.2238 51.368 8.34748C51.6559 8.47115 51.9139 8.65192 52.1253 8.87817C52.3371 9.10439 52.4979 9.3711 52.5971 9.66117C52.6967 9.95128 52.7324 10.2583 52.7024 10.5626C52.7328 10.8672 52.6976 11.1747 52.5983 11.4653C52.4995 11.7558 52.3387 12.023 52.1269 12.2497C51.9151 12.4764 51.6572 12.6575 51.3688 12.7815C51.0809 12.9054 50.7694 12.9695 50.4544 12.9695C50.1393 12.9695 49.8274 12.9054 49.5395 12.7815C49.2511 12.6575 48.9932 12.4764 48.7814 12.2497C48.5696 12.023 48.4092 11.7558 48.31 11.4653C48.2107 11.1747 48.1755 10.8672 48.2059 10.5626ZM51.7345 10.5626C51.7345 9.55883 51.2704 8.97182 50.4556 8.97182C49.6379 8.97182 49.1778 9.55883 49.1778 10.5626C49.1778 11.5745 49.6379 12.1569 50.4556 12.1569C51.2704 12.1569 51.7345 11.5705 51.7345 10.5626Z" fill="white"/>
<path d="M58.6794 12.88H57.7034L56.7181 9.4694H56.6436L55.6623 12.88H54.6956L53.3818 8.24915H54.336L55.1901 11.7828H55.2602L56.2406 8.24915H57.1429L58.123 11.7828H58.1975L59.0476 8.24915H59.9883L58.6794 12.88Z" fill="white"/>
<path d="M61.0938 8.24909H61.9993V8.98474H62.0698C62.1892 8.72052 62.3901 8.49902 62.6452 8.35115C62.9004 8.20324 63.1964 8.13633 63.4925 8.15972C63.7245 8.14277 63.9574 8.17675 64.1741 8.25912C64.3907 8.34149 64.5851 8.47011 64.7439 8.63554C64.9022 8.80096 65.0205 8.99887 65.0893 9.21466C65.1586 9.43045 65.1768 9.65856 65.1424 9.88208V12.8798H64.2016V10.1116C64.2016 9.36737 63.8687 8.9973 63.1729 8.9973C63.0154 8.99018 62.8583 9.01619 62.7121 9.07364C62.5659 9.13104 62.4342 9.21849 62.3261 9.32992C62.218 9.4414 62.1362 9.57426 62.0856 9.71939C62.0353 9.86452 62.0179 10.0185 62.0345 10.1708V12.8799H61.0938V8.24909Z" fill="white"/>
<path d="M66.6416 6.44141H67.5824V12.8799H66.6416V6.44141Z" fill="white"/>
<path d="M68.8904 10.5626C68.8605 10.2583 68.8965 9.9512 68.9957 9.66113C69.0954 9.37102 69.2557 9.10431 69.4676 8.87809C69.6794 8.65184 69.9373 8.47107 70.2253 8.3474C70.5132 8.22368 70.8243 8.15979 71.1389 8.15979C71.454 8.15979 71.765 8.22368 72.053 8.3474C72.3409 8.47107 72.5989 8.65184 72.8107 8.87809C73.0221 9.10431 73.1829 9.37102 73.2821 9.66113C73.3817 9.9512 73.4174 10.2583 73.3874 10.5626C73.4182 10.8672 73.3825 11.1747 73.2833 11.4653C73.1845 11.7558 73.0237 12.023 72.8119 12.2497C72.6001 12.4764 72.3421 12.6575 72.0538 12.7814C71.7658 12.9054 71.454 12.9694 71.1389 12.9694C70.8238 12.9694 70.5124 12.9054 70.2241 12.7814C69.9361 12.6575 69.6777 12.4764 69.4659 12.2497C69.2545 12.023 69.0938 11.7558 68.9945 11.4653C68.8953 11.1747 68.8601 10.8672 68.8904 10.5626ZM72.4195 10.5626C72.4195 9.55883 71.955 8.97181 71.1405 8.97181C70.3225 8.97181 69.8624 9.55883 69.8624 10.5626C69.8624 11.5744 70.3225 12.1569 71.1405 12.1569C71.955 12.1569 72.4195 11.5704 72.4195 10.5626Z" fill="white"/>
<path d="M74.3779 11.5704C74.3779 10.7368 75.017 10.2563 76.1509 10.188L77.4424 10.1157V9.71596C77.4424 9.22686 77.1095 8.95068 76.4664 8.95068C75.9412 8.95068 75.5771 9.13796 75.4726 9.46539H74.5618C74.6582 8.66999 75.4285 8.15979 76.5098 8.15979C77.7049 8.15979 78.3792 8.73775 78.3792 9.71596V12.88H77.4732V12.2292H77.3991C77.2476 12.4626 77.0358 12.6529 76.7839 12.7807C76.5324 12.9084 76.2506 12.969 75.9671 12.9563C75.7666 12.9765 75.5645 12.9558 75.373 12.8954C75.1818 12.835 75.0057 12.7364 74.8558 12.6058C74.706 12.4752 74.5861 12.3156 74.5039 12.1373C74.4217 11.959 74.3787 11.7658 74.3779 11.5704ZM77.4424 11.1747V10.7875L76.2781 10.8598C75.6216 10.9025 75.324 11.1194 75.324 11.5277C75.324 11.9445 75.6962 12.187 76.2081 12.187C76.3579 12.2018 76.5094 12.1871 76.6531 12.1438C76.7973 12.1005 76.931 12.0295 77.046 11.935C77.1614 11.8406 77.2557 11.7246 77.3238 11.594C77.3918 11.4634 77.4323 11.3208 77.4424 11.1747Z" fill="white"/>
<path d="M79.6157 10.5626C79.6157 9.09931 80.3905 8.17234 81.5949 8.17234C81.8925 8.15898 82.1886 8.2283 82.4474 8.37219C82.7062 8.51603 82.9176 8.72852 83.0569 8.98477H83.1269V6.44141H84.0677V12.8799H83.1662V12.1483H83.0917C82.9419 12.4028 82.7232 12.6127 82.4595 12.7551C82.1955 12.8975 81.8966 12.9671 81.5949 12.9563C80.382 12.9563 79.6157 12.0293 79.6157 10.5626ZM80.5877 10.5626C80.5877 11.5448 81.0643 12.1358 81.8618 12.1358C82.6547 12.1358 83.1448 11.5362 83.1448 10.5666C83.1448 9.60146 82.6495 8.99334 81.8618 8.99334C81.0696 8.99334 80.5877 9.58837 80.5877 10.5626Z" fill="white"/>
<path d="M87.9603 10.5626C87.9303 10.2583 87.9663 9.95128 88.0656 9.66117C88.1648 9.3711 88.3256 9.10439 88.5374 8.87817C88.7488 8.65192 89.0072 8.47115 89.2947 8.34748C89.5826 8.2238 89.8941 8.15991 90.2087 8.15991C90.5234 8.15991 90.8344 8.2238 91.1224 8.34748C91.4103 8.47115 91.6683 8.65192 91.8801 8.87817C92.0915 9.10439 92.2523 9.3711 92.3515 9.66117C92.4511 9.95128 92.4868 10.2583 92.4568 10.5626C92.4876 10.8672 92.452 11.1747 92.3527 11.4653C92.2539 11.7558 92.0931 12.023 91.8813 12.2497C91.6699 12.4764 91.4116 12.6575 91.1236 12.7815C90.8353 12.9054 90.5238 12.9695 90.2087 12.9695C89.8937 12.9695 89.5818 12.9054 89.2939 12.7815C89.0055 12.6575 88.7476 12.4764 88.5358 12.2497C88.324 12.023 88.1636 11.7558 88.0644 11.4653C87.9651 11.1747 87.9299 10.8672 87.9603 10.5626ZM91.4889 10.5626C91.4889 9.55883 91.0248 8.97182 90.21 8.97182C89.3923 8.97182 88.9322 9.55883 88.9322 10.5626C88.9322 11.5745 89.3923 12.1569 90.21 12.1569C91.0248 12.1569 91.4889 11.5705 91.4889 10.5626Z" fill="white"/>
<path d="M93.7192 8.24909H94.6248V8.98474H94.6953C94.8143 8.72052 95.0156 8.49902 95.2703 8.35115C95.5255 8.20324 95.8215 8.13633 96.1176 8.15972C96.3496 8.14277 96.5825 8.17675 96.7991 8.25912C97.0158 8.34149 97.2106 8.47011 97.369 8.63554C97.5277 8.80096 97.6456 8.99887 97.7148 9.21466C97.7837 9.43045 97.8019 9.65856 97.7679 9.88208V12.8798H96.8271V10.1116C96.8271 9.36737 96.4942 8.9973 95.7984 8.9973C95.6409 8.99018 95.4834 9.01619 95.3376 9.07364C95.1914 9.13104 95.0597 9.21849 94.9516 9.32992C94.8435 9.4414 94.7613 9.57426 94.711 9.71939C94.6608 9.86452 94.6434 10.0185 94.66 10.1708V12.8799H93.7192V8.24909Z" fill="white"/>
<path d="M103.084 7.09631V8.27031H104.117V9.04014H103.084V11.4213C103.084 11.9064 103.29 12.1188 103.759 12.1188C103.878 12.1184 103.998 12.1114 104.117 12.0977V12.8589C103.948 12.8883 103.777 12.9039 103.605 12.9056C102.559 12.9056 102.143 12.5481 102.143 11.6553V9.0401H101.386V8.27027H102.143V7.09631H103.084Z" fill="white"/>
<path d="M105.402 6.44141H106.335V8.99334H106.41C106.535 8.72663 106.741 8.50392 107.001 8.35544C107.262 8.20701 107.563 8.14009 107.863 8.16377C108.094 8.15157 108.325 8.18901 108.539 8.27339C108.753 8.35774 108.945 8.48701 109.102 8.65187C109.259 8.81677 109.376 9.01327 109.446 9.22729C109.515 9.44135 109.536 9.66768 109.505 9.89015V12.8799H108.563V10.1156C108.563 9.37597 108.208 9.00136 107.543 9.00136C107.382 8.98847 107.22 9.01005 107.067 9.06464C106.915 9.11919 106.777 9.20539 106.662 9.31723C106.548 9.42903 106.46 9.56377 106.405 9.71201C106.35 9.86024 106.329 10.0184 106.343 10.1754V12.8799H105.402V6.44141Z" fill="white"/>
<path d="M114.991 11.6297C114.863 12.0529 114.586 12.419 114.208 12.6639C113.831 12.9089 113.376 13.017 112.925 12.9694C112.611 12.9775 112.299 12.919 112.01 12.7982C111.722 12.6773 111.464 12.4969 111.254 12.2695C111.045 12.0421 110.889 11.7731 110.797 11.4812C110.705 11.1893 110.68 10.8815 110.723 10.5792C110.681 10.276 110.707 9.9675 110.798 9.67473C110.89 9.38197 111.045 9.11175 111.254 8.88236C111.462 8.65292 111.719 8.4697 112.006 8.34506C112.294 8.22042 112.606 8.15725 112.921 8.15987C114.248 8.15987 115.048 9.04017 115.048 10.4943V10.8132H111.681V10.8644C111.667 11.0344 111.688 11.2054 111.746 11.3666C111.803 11.5278 111.895 11.6756 112.014 11.8005C112.134 11.9254 112.279 12.0247 112.44 12.092C112.601 12.1592 112.775 12.193 112.951 12.1911C113.176 12.2173 113.404 12.178 113.606 12.078C113.808 11.978 113.975 11.8219 114.085 11.6297L114.991 11.6297ZM111.681 10.1373H114.089C114.101 9.98191 114.079 9.82579 114.026 9.679C113.971 9.53226 113.887 9.39803 113.776 9.28507C113.666 9.1721 113.532 9.08285 113.384 9.02298C113.236 8.96316 113.076 8.93413 112.916 8.93767C112.753 8.9357 112.592 8.96537 112.441 9.02495C112.29 9.08454 112.153 9.17287 112.038 9.28467C111.923 9.39646 111.832 9.52948 111.771 9.67594C111.71 9.82236 111.679 9.97925 111.681 10.1373Z" fill="white"/>
</g>
<defs>
<clipPath id="clip0_4176_1055">
<rect width="130" height="38.6486" fill="white"/>
</clipPath>
</defs>
</svg>
