<?xml version="1.0" encoding="utf-8"?>
<!-- Generator: Adobe Illustrator 24.0.1, SVG Export Plug-In . SVG Version: 6.00 Build 0)  -->
<svg version="1.1" id="Layer_1" xmlns="http://www.w3.org/2000/svg" xmlns:xlink="http://www.w3.org/1999/xlink" x="0px" y="0px"
	 viewBox="0 0 215.7 31" style="enable-background:new 0 0 215.7 31;" xml:space="preserve">
<style type="text/css">
	.st0{fill:#3C2999;}
	.st1{fill-rule:evenodd;clip-rule:evenodd;fill:#D94B61;}
</style>
<g>
	<g>
		<path class="st0" d="M3.5,23.6c-0.5,0-1-0.2-1.3-0.5c-0.3-0.3-0.4-0.7-0.4-1.3V5.6c0-0.6,0.1-1,0.4-1.3C2.5,4,2.9,3.8,3.5,3.8
			s1,0.1,1.3,0.4C5.1,4.6,5.2,5,5.2,5.6v10.1h0.1l4.5-4.8c0.4-0.4,0.7-0.6,1-0.9c0.3-0.2,0.6-0.3,1.1-0.3c0.5,0,0.8,0.1,1.1,0.4
			c0.2,0.2,0.4,0.5,0.4,0.9c0,0.3-0.2,0.7-0.5,1l-4.8,5.1v-1.4l5.2,5.7c0.3,0.3,0.5,0.7,0.5,1.1c0,0.4-0.2,0.6-0.5,0.9
			c-0.3,0.2-0.6,0.3-1,0.3c-0.5,0-0.9-0.1-1.2-0.3s-0.6-0.5-1-0.9l-4.8-5H5.2v4.4C5.2,23.1,4.6,23.6,3.5,23.6z"/>
		<path class="st0" d="M17.5,23.6c-0.5,0-1-0.2-1.3-0.5c-0.3-0.3-0.4-0.7-0.4-1.3V11.5c0-0.6,0.1-1,0.4-1.3c0.3-0.3,0.7-0.4,1.2-0.4
			c0.5,0,0.9,0.1,1.2,0.4c0.3,0.3,0.4,0.7,0.4,1.3v1.9l-0.3-0.7c0.4-1,1-1.7,1.9-2.2c0.9-0.5,1.8-0.8,2.9-0.8c1.1,0,2,0.2,2.7,0.6
			c0.7,0.4,1.2,1,1.6,1.8c0.3,0.8,0.5,1.8,0.5,3.1v6.6c0,0.6-0.1,1-0.4,1.3s-0.7,0.5-1.3,0.5c-0.5,0-1-0.2-1.3-0.5
			c-0.3-0.3-0.5-0.7-0.5-1.3v-6.5c0-1-0.2-1.8-0.6-2.3c-0.4-0.5-1-0.7-1.8-0.7c-1,0-1.8,0.3-2.4,0.9c-0.6,0.6-0.9,1.5-0.9,2.5v6
			C19.3,23.1,18.7,23.6,17.5,23.6z"/>
		<path class="st0" d="M53.1,23.6c-0.5,0-0.9-0.1-1.2-0.3c-0.3-0.2-0.6-0.6-0.8-1.1l-4-10.2c-0.2-0.4-0.2-0.8-0.2-1.2
			c0.1-0.3,0.2-0.6,0.5-0.8c0.3-0.2,0.6-0.3,1.1-0.3c0.4,0,0.7,0.1,1,0.3c0.3,0.2,0.5,0.6,0.7,1.1l3.3,9.1h-0.6l3.4-9.4
			c0.1-0.4,0.3-0.7,0.6-0.9c0.2-0.2,0.6-0.3,1-0.3s0.7,0.1,1,0.3c0.3,0.2,0.4,0.5,0.6,0.9l3.4,9.4h-0.6l3.4-9.2
			c0.2-0.5,0.4-0.8,0.7-1c0.3-0.2,0.6-0.3,0.9-0.3c0.4,0,0.8,0.1,1,0.3c0.2,0.2,0.4,0.5,0.4,0.8c0,0.3,0,0.7-0.2,1.1l-4,10.2
			c-0.2,0.5-0.4,0.8-0.8,1.1c-0.3,0.2-0.7,0.4-1.2,0.4c-0.5,0-0.9-0.1-1.2-0.4s-0.6-0.6-0.8-1.1L57,12.7h1.6L55,22.2
			c-0.2,0.5-0.4,0.9-0.8,1.1S53.5,23.6,53.1,23.6z"/>
		<path class="st0" d="M80.8,28.6c-0.4,0-0.7-0.1-1-0.3c-0.3-0.2-0.4-0.5-0.5-0.8c0-0.3,0-0.7,0.2-1.1l1.9-4.1v1.4l-5-11.6
			c-0.2-0.4-0.2-0.8-0.2-1.1c0.1-0.3,0.2-0.6,0.5-0.8c0.3-0.2,0.7-0.3,1.2-0.3c0.4,0,0.8,0.1,1,0.3c0.3,0.2,0.5,0.6,0.7,1.1l3.7,9.3
			h-0.8l3.8-9.3c0.2-0.5,0.4-0.9,0.7-1.1c0.3-0.2,0.6-0.3,1.1-0.3c0.4,0,0.7,0.1,1,0.3c0.2,0.2,0.4,0.5,0.4,0.8
			c0.1,0.3,0,0.7-0.2,1.1l-6.7,15.2c-0.2,0.5-0.5,0.9-0.8,1C81.6,28.5,81.2,28.6,80.8,28.6z"/>
		<path class="st0" d="M97,23.7c-1.4,0-2.6-0.3-3.6-0.9s-1.8-1.4-2.4-2.4c-0.6-1.1-0.9-2.3-0.9-3.7c0-1.1,0.2-2,0.5-2.9
			s0.8-1.6,1.4-2.2c0.6-0.6,1.3-1.1,2.2-1.4C95,9.9,96,9.7,97,9.7c1.4,0,2.6,0.3,3.6,0.9c1,0.6,1.8,1.4,2.4,2.4
			c0.6,1,0.9,2.3,0.9,3.7c0,1.1-0.2,2.1-0.5,2.9s-0.8,1.6-1.4,2.2c-0.6,0.6-1.3,1.1-2.2,1.4C99,23.5,98,23.7,97,23.7z M97,21.1
			c0.7,0,1.3-0.2,1.8-0.5c0.5-0.3,0.9-0.8,1.2-1.5c0.3-0.6,0.4-1.5,0.4-2.4c0-1.5-0.3-2.6-0.9-3.3c-0.6-0.7-1.4-1.1-2.5-1.1
			c-0.7,0-1.3,0.2-1.8,0.5c-0.5,0.3-0.9,0.8-1.2,1.5s-0.4,1.5-0.4,2.4c0,1.4,0.3,2.5,0.9,3.3C95.1,20.7,96,21.1,97,21.1z"/>
		<path class="st0" d="M110.9,23.7c-1.1,0-2-0.2-2.8-0.6s-1.3-1-1.6-1.9c-0.4-0.8-0.5-1.8-0.5-3.1v-6.6c0-0.6,0.1-1,0.4-1.3
			c0.3-0.3,0.7-0.4,1.3-0.4s1,0.1,1.3,0.4c0.3,0.3,0.5,0.7,0.5,1.3v6.7c0,1,0.2,1.7,0.6,2.1c0.4,0.5,1,0.7,1.8,0.7
			c0.9,0,1.7-0.3,2.3-0.9s0.9-1.5,0.9-2.5v-6c0-0.6,0.1-1,0.4-1.3c0.3-0.3,0.7-0.4,1.3-0.4c0.5,0,1,0.1,1.3,0.4
			c0.3,0.3,0.5,0.7,0.5,1.3v10.4c0,1.2-0.6,1.8-1.7,1.8c-0.5,0-0.9-0.2-1.2-0.5s-0.4-0.7-0.4-1.3v-2.1l0.4,0.8c-0.4,1-1,1.7-1.7,2.3
			S111.9,23.7,110.9,23.7z"/>
		<path class="st0" d="M123,23.6c-0.6,0-1-0.2-1.3-0.5c-0.3-0.3-0.5-0.7-0.5-1.3V11.5c0-0.6,0.1-1,0.4-1.3c0.3-0.3,0.7-0.4,1.2-0.4
			s0.9,0.1,1.2,0.4c0.3,0.3,0.4,0.7,0.4,1.3v1.7h-0.3c0.3-1.1,0.8-1.9,1.5-2.5c0.8-0.6,1.7-0.9,3-1c0.4,0,0.7,0.1,0.9,0.3
			c0.2,0.2,0.4,0.6,0.4,1.1c0,0.5-0.1,0.8-0.3,1.1c-0.2,0.3-0.6,0.5-1.1,0.5l-0.6,0.1c-1.1,0.1-2,0.5-2.5,1
			c-0.6,0.6-0.9,1.4-0.9,2.4v5.7c0,0.6-0.1,1-0.4,1.3S123.6,23.6,123,23.6z"/>
		<path class="st0" d="M143,23.7c-0.8,0-1.6-0.1-2.5-0.2c-0.9-0.2-1.7-0.4-2.4-0.9c-0.3-0.2-0.5-0.4-0.6-0.6s-0.2-0.5-0.1-0.7
			s0.1-0.5,0.3-0.6c0.2-0.2,0.4-0.3,0.6-0.4c0.2-0.1,0.5,0,0.8,0.1c0.7,0.3,1.4,0.6,2.1,0.7c0.6,0.1,1.3,0.2,1.9,0.2
			c0.9,0,1.5-0.2,2-0.5c0.4-0.3,0.6-0.7,0.6-1.2c0-0.4-0.1-0.7-0.4-1c-0.3-0.2-0.7-0.4-1.3-0.5l-2.7-0.5c-1.1-0.2-2-0.6-2.6-1.2
			c-0.6-0.6-0.9-1.4-0.9-2.4c0-0.9,0.2-1.6,0.7-2.3s1.2-1.1,2-1.5c0.9-0.3,1.8-0.5,3-0.5c0.8,0,1.6,0.1,2.3,0.3
			c0.7,0.2,1.4,0.4,2,0.8c0.3,0.1,0.5,0.3,0.6,0.6c0.1,0.2,0.1,0.5,0.1,0.7s-0.2,0.5-0.3,0.7c-0.2,0.2-0.4,0.3-0.6,0.4
			c-0.2,0-0.5,0-0.8-0.2c-0.6-0.3-1.1-0.5-1.6-0.6c-0.5-0.1-1-0.2-1.5-0.2c-0.9,0-1.6,0.2-2,0.5c-0.4,0.3-0.6,0.7-0.6,1.2
			c0,0.4,0.1,0.7,0.4,1c0.3,0.3,0.6,0.4,1.2,0.5l2.7,0.5c1.2,0.2,2.1,0.6,2.7,1.2c0.6,0.6,0.9,1.4,0.9,2.4c0,1.3-0.5,2.4-1.6,3.1
			C146.1,23.3,144.7,23.7,143,23.7z"/>
		<path class="st0" d="M157,23.7c-1.4,0-2.6-0.3-3.7-0.9c-1-0.6-1.8-1.4-2.4-2.5c-0.6-1.1-0.9-2.3-0.9-3.7c0-1.1,0.2-2,0.5-2.9
			s0.8-1.6,1.4-2.2c0.6-0.6,1.3-1.1,2.2-1.4c0.9-0.3,1.8-0.5,2.9-0.5c0.6,0,1.3,0.1,2,0.2s1.4,0.4,2,0.8c0.3,0.2,0.5,0.4,0.6,0.7
			c0.1,0.3,0.1,0.5,0.1,0.8c-0.1,0.3-0.2,0.5-0.3,0.7c-0.2,0.2-0.4,0.3-0.6,0.4c-0.3,0-0.5,0-0.9-0.2c-0.4-0.2-0.8-0.4-1.2-0.5
			c-0.4-0.1-0.8-0.2-1.2-0.2c-0.6,0-1.1,0.1-1.6,0.3c-0.5,0.2-0.8,0.5-1.2,0.8c-0.3,0.4-0.6,0.8-0.7,1.3c-0.2,0.5-0.2,1.1-0.2,1.8
			c0,1.4,0.3,2.4,1,3.2c0.7,0.8,1.6,1.2,2.8,1.2c0.4,0,0.8-0.1,1.2-0.2s0.8-0.3,1.3-0.5c0.3-0.2,0.6-0.2,0.8-0.2
			c0.2,0.1,0.5,0.2,0.6,0.4c0.2,0.2,0.3,0.4,0.3,0.7c0,0.3,0,0.5-0.1,0.8s-0.3,0.5-0.6,0.6c-0.6,0.4-1.2,0.6-1.9,0.8
			C158.2,23.6,157.6,23.7,157,23.7z"/>
		<path class="st0" d="M164.8,23.6c-0.5,0-1-0.2-1.3-0.5s-0.4-0.7-0.4-1.3V5.6c0-0.6,0.1-1,0.4-1.3c0.3-0.3,0.7-0.4,1.3-0.4
			c0.5,0,1,0.1,1.3,0.4c0.3,0.3,0.5,0.7,0.5,1.3v7.1h-0.4c0.4-1,1-1.7,1.9-2.2c0.9-0.5,1.8-0.8,2.9-0.8c1.1,0,2,0.2,2.7,0.6
			c0.7,0.4,1.2,1,1.6,1.8s0.5,1.8,0.5,3.1v6.6c0,0.6-0.1,1-0.4,1.3c-0.3,0.3-0.7,0.5-1.3,0.5c-0.5,0-1-0.2-1.3-0.5
			c-0.3-0.3-0.5-0.7-0.5-1.3v-6.5c0-1-0.2-1.8-0.6-2.3c-0.4-0.5-1-0.7-1.8-0.7c-1,0-1.8,0.3-2.4,0.9c-0.6,0.6-0.9,1.5-0.9,2.5v6
			C166.5,23.1,165.9,23.6,164.8,23.6z"/>
		<path class="st0" d="M184.6,23.7c-1.4,0-2.6-0.3-3.6-0.9s-1.8-1.4-2.4-2.4c-0.6-1.1-0.9-2.3-0.9-3.7c0-1.1,0.2-2,0.5-2.9
			s0.8-1.6,1.4-2.2c0.6-0.6,1.3-1.1,2.2-1.4c0.8-0.3,1.8-0.5,2.8-0.5c1.4,0,2.6,0.3,3.6,0.9c1,0.6,1.8,1.4,2.4,2.4
			c0.6,1,0.9,2.3,0.9,3.7c0,1.1-0.2,2.1-0.5,2.9s-0.8,1.6-1.4,2.2c-0.6,0.6-1.3,1.1-2.2,1.4C186.6,23.5,185.6,23.7,184.6,23.7z
			 M184.6,21.1c0.7,0,1.3-0.2,1.8-0.5c0.5-0.3,0.9-0.8,1.2-1.5c0.3-0.6,0.4-1.5,0.4-2.4c0-1.5-0.3-2.6-0.9-3.3
			c-0.6-0.7-1.4-1.1-2.5-1.1c-0.7,0-1.3,0.2-1.8,0.5c-0.5,0.3-0.9,0.8-1.2,1.5s-0.4,1.5-0.4,2.4c0,1.4,0.3,2.5,0.9,3.3
			C182.7,20.7,183.5,21.1,184.6,21.1z"/>
		<path class="st0" d="M199.7,23.7c-1.4,0-2.6-0.3-3.6-0.9s-1.8-1.4-2.4-2.4c-0.6-1.1-0.9-2.3-0.9-3.7c0-1.1,0.2-2,0.5-2.9
			s0.8-1.6,1.4-2.2c0.6-0.6,1.3-1.1,2.2-1.4c0.8-0.3,1.8-0.5,2.8-0.5c1.4,0,2.6,0.3,3.6,0.9c1,0.6,1.8,1.4,2.4,2.4
			c0.6,1,0.9,2.3,0.9,3.7c0,1.1-0.2,2.1-0.5,2.9s-0.8,1.6-1.4,2.2c-0.6,0.6-1.3,1.1-2.2,1.4C201.7,23.5,200.7,23.7,199.7,23.7z
			 M199.7,21.1c0.7,0,1.3-0.2,1.8-0.5c0.5-0.3,0.9-0.8,1.2-1.5c0.3-0.6,0.4-1.5,0.4-2.4c0-1.5-0.3-2.6-0.9-3.3
			c-0.6-0.7-1.4-1.1-2.5-1.1c-0.7,0-1.3,0.2-1.8,0.5c-0.5,0.3-0.9,0.8-1.2,1.5s-0.4,1.5-0.4,2.4c0,1.4,0.3,2.5,0.9,3.3
			C197.9,20.7,198.7,21.1,199.7,21.1z"/>
		<path class="st0" d="M213.3,23.7c-1.5,0-2.7-0.4-3.4-1.3c-0.8-0.9-1.2-2.1-1.2-3.8v-13c0-0.6,0.1-1,0.4-1.3
			c0.3-0.3,0.7-0.4,1.3-0.4c0.5,0,1,0.1,1.3,0.4c0.3,0.3,0.5,0.7,0.5,1.3v12.8c0,0.8,0.2,1.5,0.5,1.9c0.4,0.4,0.9,0.6,1.5,0.6
			c0.1,0,0.3,0,0.4,0s0.3,0,0.4,0c0.3,0,0.4,0,0.5,0.2c0.1,0.2,0.1,0.5,0.1,1.1c0,0.5-0.1,0.8-0.3,1.1c-0.2,0.3-0.5,0.4-0.9,0.5
			c-0.2,0-0.4,0-0.6,0.1C213.7,23.7,213.5,23.7,213.3,23.7z"/>
	</g>
	<path class="st1" d="M38.9,15c0.9,0.2,1.7,1,1.9,1.9c0.1,0.4,0.4,0.7,0.9,0.7c0.5,0,0.9-0.4,0.9-0.9c0-0.6-0.5-1.6-1.2-2.3
		c-0.7-0.7-1.5-1.2-2.2-1.2c-0.5,0-0.9,0.4-0.9,0.9C38.2,14.6,38.5,14.9,38.9,15z M26.9,26.4c-0.7,0.7-0.7,1.8,0,2.4
		c0.7,0.7,1.8,0.7,2.4,0l5-5c1.2,0.7,2.5,1.2,4,1.2c4.2,0,7.6-3.4,7.6-7.6c0-4.2-3.4-7.6-7.6-7.6c-4.2,0-7.6,3.4-7.6,7.6
		c0,1.5,0.4,2.9,1.2,4L26.9,26.4z M32.9,17.4c0-3,2.4-5.4,5.4-5.4s5.4,2.4,5.4,5.4c0,3-2.4,5.4-5.4,5.4S32.9,20.4,32.9,17.4z"/>
</g>
</svg>
