<svg width="130" height="39" viewBox="0 0 130 39" fill="none" xmlns="http://www.w3.org/2000/svg">
<g clip-path="url(#clip0_4176_1035)">
<path d="M126.073 0H3.92749C1.7584 0 0 1.78388 0 3.9844V34.6643C0 36.8648 1.7584 38.6486 3.92749 38.6486H126.073C128.242 38.6486 130 36.8648 130 34.6643V3.9844C130 1.78388 128.242 0 126.073 0Z" fill="black"/>
<path d="M20.3866 18.7523L9.98145 29.9556C9.98243 29.9576 9.98243 29.9606 9.98337 29.9626C10.3029 31.1791 11.3975 32.0743 12.6973 32.0743C13.2172 32.0743 13.7049 31.9316 14.1232 31.6817L14.1564 31.6619L25.8682 24.8061L20.3866 18.7523Z" fill="#EA4335"/>
<path d="M30.9127 16.8445L30.9029 16.8376L25.8465 13.8643L20.1499 19.0069L25.867 24.8049L30.8961 21.8613C31.7776 21.3774 32.3767 20.4346 32.3767 19.3479C32.3767 18.2673 31.7864 17.3294 30.9127 16.8445Z" fill="#FBBC04"/>
<path d="M9.98104 8.69214C9.91848 8.9261 9.88525 9.17198 9.88525 9.42583V29.223C9.88525 29.4768 9.91848 29.7227 9.98203 29.9557L20.7439 19.0389L9.98104 8.69214Z" fill="#4285F4"/>
<path d="M20.4633 19.3242L25.8481 13.8623L14.15 6.9817C13.7249 6.72292 13.2285 6.57422 12.6978 6.57422C11.398 6.57422 10.3015 7.47147 9.98194 8.68898C9.98194 8.68993 9.98096 8.69093 9.98096 8.69193L20.4633 19.3242Z" fill="#34A853"/>
<path d="M47.6932 9.73986C47.6932 10.5252 47.4638 11.1502 47.0051 11.6169C46.4831 12.1717 45.8041 12.4491 44.9691 12.4491C44.1683 12.4491 43.488 12.168 42.9291 11.6048C42.3687 11.0425 42.0898 10.3443 42.0898 9.51211C42.0898 8.67902 42.3687 7.98179 42.9291 7.41859C43.488 6.85631 44.1683 6.57422 44.9691 6.57422C45.3654 6.57422 45.7459 6.65295 46.1061 6.81037C46.4674 6.9678 46.7565 7.17678 46.9737 7.43828L46.4859 7.93306C46.1191 7.48888 45.6136 7.26583 44.9691 7.26583C44.3851 7.26583 43.8808 7.47386 43.455 7.88995C43.0289 8.30699 42.8168 8.84676 42.8168 9.51211C42.8168 10.1766 43.0289 10.7173 43.455 11.1334C43.8808 11.5504 44.3851 11.7575 44.9691 11.7575C45.5881 11.7575 46.1033 11.5485 46.5173 11.1296C46.7852 10.8569 46.9395 10.4783 46.9808 9.991H44.9691V9.31532H47.6543C47.6802 9.46247 47.6932 9.60395 47.6932 9.73986Z" fill="white"/>
<path d="M47.6932 9.73986C47.6932 10.5252 47.4638 11.1502 47.0051 11.6169C46.4831 12.1717 45.8041 12.4491 44.9691 12.4491C44.1683 12.4491 43.488 12.168 42.9291 11.6048C42.3687 11.0425 42.0898 10.3443 42.0898 9.51211C42.0898 8.67902 42.3687 7.98179 42.9291 7.41859C43.488 6.85631 44.1683 6.57422 44.9691 6.57422C45.3654 6.57422 45.7459 6.65295 46.1061 6.81037C46.4674 6.9678 46.7565 7.17678 46.9737 7.43828L46.4859 7.93306C46.1191 7.48888 45.6136 7.26583 44.9691 7.26583C44.3851 7.26583 43.8808 7.47386 43.455 7.88995C43.0289 8.30699 42.8168 8.84676 42.8168 9.51211C42.8168 10.1766 43.0289 10.7173 43.455 11.1334C43.8808 11.5504 44.3851 11.7575 44.9691 11.7575C45.5881 11.7575 46.1033 11.5485 46.5173 11.1296C46.7852 10.8569 46.9395 10.4783 46.9808 9.991H44.9691V9.31532H47.6543C47.6802 9.46247 47.6932 9.60395 47.6932 9.73986Z" fill="white"/>
<path d="M51.9507 7.39146H49.4269V9.17388H51.7029V9.84955H49.4269V11.632H51.9507V12.3236H48.7148V6.70081H51.9507V7.39146Z" fill="white"/>
<path d="M51.9507 7.39146H49.4269V9.17388H51.7029V9.84955H49.4269V11.632H51.9507V12.3236H48.7148V6.70081H51.9507V7.39146Z" fill="white"/>
<path d="M54.9536 12.3235H54.2416V7.39134H52.6934V6.70068H56.5019V7.39134H54.9536V12.3235Z" fill="white"/>
<path d="M54.9536 12.3235H54.2416V7.39134H52.6934V6.70068H56.5019V7.39134H54.9536V12.3235Z" fill="white"/>
<path d="M59.2578 6.70068H59.9699V12.3235H59.2578V6.70068Z" fill="white"/>
<path d="M63.1288 12.3235H62.4164V7.39134H60.8682V6.70068H64.677V7.39134H63.1288V12.3235Z" fill="white"/>
<path d="M63.1288 12.3235H62.4164V7.39134H60.8682V6.70068H64.677V7.39134H63.1288V12.3235Z" fill="white"/>
<path d="M68.3484 11.1259C68.7588 11.5476 69.2603 11.7575 69.8542 11.7575C70.448 11.7575 70.9499 11.5476 71.36 11.1259C71.77 10.7042 71.9762 10.1662 71.9762 9.51211C71.9762 8.85799 71.77 8.31914 71.36 7.89839C70.9499 7.47668 70.448 7.26583 69.8542 7.26583C69.2603 7.26583 68.7588 7.47668 68.3484 7.89839C67.9391 8.31914 67.7333 8.85799 67.7333 9.51211C67.7333 10.1662 67.9391 10.7042 68.3484 11.1259ZM71.8867 11.5963C71.3415 12.1652 70.6644 12.4491 69.8542 12.4491C69.0439 12.4491 68.3668 12.1652 67.8229 11.5963C67.2777 11.0284 67.0063 10.334 67.0063 9.51211C67.0063 8.69025 67.2777 7.99489 67.8229 7.427C68.3668 6.8591 69.0439 6.57422 69.8542 6.57422C70.6597 6.57422 71.3348 6.86006 71.8827 7.43074C72.4298 8.00147 72.7032 8.69495 72.7032 9.51211C72.7032 10.334 72.4306 11.0284 71.8867 11.5963Z" fill="white"/>
<path d="M68.3484 11.1259C68.7588 11.5476 69.2603 11.7575 69.8542 11.7575C70.448 11.7575 70.9499 11.5476 71.36 11.1259C71.77 10.7042 71.9762 10.1662 71.9762 9.51211C71.9762 8.85799 71.77 8.31914 71.36 7.89839C70.9499 7.47668 70.448 7.26583 69.8542 7.26583C69.2603 7.26583 68.7588 7.47668 68.3484 7.89839C67.9391 8.31914 67.7333 8.85799 67.7333 9.51211C67.7333 10.1662 67.9391 10.7042 68.3484 11.1259ZM71.8867 11.5963C71.3415 12.1652 70.6644 12.4491 69.8542 12.4491C69.0439 12.4491 68.3668 12.1652 67.8229 11.5963C67.2777 11.0284 67.0063 10.334 67.0063 9.51211C67.0063 8.69025 67.2777 7.99489 67.8229 7.427C68.3668 6.8591 69.0439 6.57422 69.8542 6.57422C70.6597 6.57422 71.3348 6.86006 71.8827 7.43074C72.4298 8.00147 72.7032 8.69495 72.7032 9.51211C72.7032 10.334 72.4306 11.0284 71.8867 11.5963Z" fill="white"/>
<path d="M73.7031 12.3235V6.70068H74.5695L77.263 11.0743H77.2944L77.263 9.99096V6.70068H77.9762V12.3235H77.2328L74.4144 7.73715H74.3838L74.4144 8.82142V12.3235H73.7031Z" fill="white"/>
<path d="M73.7031 12.3235V6.70068H74.5695L77.263 11.0743H77.2944L77.263 9.99096V6.70068H77.9762V12.3235H77.2328L74.4144 7.73715H74.3838L74.4144 8.82142V12.3235H73.7031Z" fill="white"/>
<path d="M102.673 28.2546H104.396V16.5395H102.673V28.2546ZM118.198 20.7595L116.222 25.8387H116.163L114.112 20.7595H112.255L115.331 27.8582L113.578 31.8073H115.375L120.115 20.7595H118.198ZM108.423 26.9239C107.857 26.9239 107.07 26.6381 107.07 25.9287C107.07 25.0253 108.051 24.6786 108.898 24.6786C109.655 24.6786 110.013 24.8444 110.473 25.0703C110.339 26.1555 109.418 26.9239 108.423 26.9239ZM108.631 20.5036C107.383 20.5036 106.09 21.0612 105.555 22.2973L107.085 22.9449C107.412 22.2973 108.021 22.0855 108.66 22.0855C109.552 22.0855 110.458 22.6281 110.473 23.5933V23.7133C110.16 23.5324 109.492 23.2616 108.675 23.2616C107.026 23.2616 105.347 24.1809 105.347 25.8987C105.347 27.4665 106.699 28.4767 108.214 28.4767C109.373 28.4767 110.013 27.9491 110.413 27.3306H110.473V28.2349H112.136V23.7433C112.136 21.6638 110.607 20.5036 108.631 20.5036ZM97.9782 22.1858H95.5262V18.1702H97.9782C99.2668 18.1702 99.9985 19.2526 99.9985 20.1775C99.9985 21.0856 99.2668 22.1858 97.9782 22.1858ZM97.9338 16.5395H93.8036V28.2546H95.5262V23.8164H97.9338C99.8441 23.8164 101.722 22.4125 101.722 20.1775C101.722 17.9425 99.8441 16.5395 97.9338 16.5395ZM75.412 26.9258C74.2211 26.9258 73.2243 25.9146 73.2243 24.5258C73.2243 23.122 74.2211 22.0949 75.412 22.0949C76.5878 22.0949 77.5096 23.122 77.5096 24.5258C77.5096 25.9146 76.5878 26.9258 75.412 26.9258ZM77.3914 21.4155H77.3313C76.9445 20.9478 76.2006 20.5252 75.2631 20.5252C73.2982 20.5252 71.4978 22.2757 71.4978 24.5258C71.4978 26.7599 73.2982 28.4964 75.2631 28.4964C76.2006 28.4964 76.9445 28.0738 77.3313 27.5902H77.3914V28.1647C77.3914 29.6894 76.5878 30.5047 75.2926 30.5047C74.2357 30.5047 73.581 29.7344 73.3131 29.0849L71.8101 29.7194C72.2413 30.7765 73.3877 32.0744 75.2926 32.0744C77.3164 32.0744 79.0284 30.8664 79.0284 27.9229V20.766H77.3914V21.4155ZM80.2188 28.2546H81.9453V16.5386H80.2188V28.2546ZM84.4896 24.3899C84.4452 22.8502 85.6655 22.0649 86.5429 22.0649C87.2282 22.0649 87.8083 22.4116 88.0015 22.9102L84.4896 24.3899ZM89.8471 23.061C89.5203 22.1708 88.5227 20.5252 86.484 20.5252C84.4597 20.5252 82.7788 22.1399 82.7788 24.5108C82.7788 26.7449 84.4452 28.4964 86.6768 28.4964C88.4783 28.4964 89.5203 27.3793 89.9515 26.7299L88.6123 25.8237C88.1661 26.4881 87.5554 26.9258 86.6768 26.9258C85.7994 26.9258 85.1741 26.5182 84.772 25.7188L90.0254 23.5137L89.8471 23.061ZM47.9941 21.7481V23.4387H51.9817C51.8627 24.3899 51.5505 25.0843 51.0749 25.567C50.4936 26.1564 49.5855 26.8058 47.9941 26.8058C45.5379 26.8058 43.6181 24.7976 43.6181 22.3066C43.6181 19.8148 45.5379 17.8075 47.9941 17.8075C49.3185 17.8075 50.2858 18.336 50.9998 19.0155L52.1757 17.8225C51.1781 16.8563 49.8546 16.116 47.9941 16.116C44.6306 16.116 41.8032 18.8946 41.8032 22.3066C41.8032 25.7188 44.6306 28.4964 47.9941 28.4964C49.809 28.4964 51.1782 27.892 52.2496 26.7599C53.3516 25.6429 53.6937 24.0732 53.6937 22.8043C53.6937 22.4116 53.6639 22.0499 53.6038 21.7481H47.9941ZM58.2284 26.9258C57.0376 26.9258 56.0101 25.9296 56.0101 24.5108C56.0101 23.076 57.0376 22.0949 58.2284 22.0949C59.418 22.0949 60.4451 23.076 60.4451 24.5108C60.4451 25.9296 59.418 26.9258 58.2284 26.9258ZM58.2284 20.5252C56.0545 20.5252 54.2836 22.2008 54.2836 24.5108C54.2836 26.8058 56.0545 28.4964 58.2284 28.4964C60.4007 28.4964 62.1716 26.8058 62.1716 24.5108C62.1716 22.2008 60.4007 20.5252 58.2284 20.5252ZM66.8312 26.9258C65.6404 26.9258 64.6133 25.9296 64.6133 24.5108C64.6133 23.076 65.6404 22.0949 66.8312 22.0949C68.022 22.0949 69.0482 23.076 69.0482 24.5108C69.0482 25.9296 68.022 26.9258 66.8312 26.9258ZM66.8312 20.5252C64.6585 20.5252 62.8876 22.2008 62.8876 24.5108C62.8876 26.8058 64.6585 28.4964 66.8312 28.4964C69.0039 28.4964 70.7744 26.8058 70.7744 24.5108C70.7744 22.2008 69.0039 20.5252 66.8312 20.5252Z" fill="white"/>
</g>
<defs>
<clipPath id="clip0_4176_1035">
<rect width="130" height="38.6486" fill="white"/>
</clipPath>
</defs>
</svg>
